<mxfile host="app.diagrams.net" modified="2023-12-26T16:58:58.701Z" agent="Mozilla/5.0 (Windows NT 10.0; Win64; x64) AppleWebKit/537.36 (KHTML, like Gecko) Chrome/120.0.0.0 Safari/537.36" etag="Lg_9RtakJHAqkqkWSxwM" version="22.1.11" type="device">
  <diagram name="Page-1" id="HTRC14PGje5rPNPYSOH-">
    <mxGraphModel dx="1450" dy="985" grid="1" gridSize="10" guides="1" tooltips="1" connect="1" arrows="1" fold="1" page="0" pageScale="1" pageWidth="850" pageHeight="1100" math="0" shadow="0">
      <root>
        <mxCell id="0" />
        <mxCell id="1" parent="0" />
        <mxCell id="OgRYj6fnWVbovx88ilHC-93" value="" style="html=1;overflow=block;blockSpacing=1;whiteSpace=wrap;fontSize=13;spacing=9;strokeColor=#3a414a;strokeOpacity=100;rounded=1;absoluteArcSize=1;arcSize=9;strokeWidth=0.8;lucidId=gJJYpIdF4NcB;" vertex="1" parent="1">
          <mxGeometry x="130" y="189" width="76" height="245" as="geometry" />
        </mxCell>
        <mxCell id="OgRYj6fnWVbovx88ilHC-94" value="Authentication Filter" style="html=1;overflow=block;blockSpacing=1;whiteSpace=wrap;fontSize=16.7;fontColor=#3a414a;spacing=3.8;strokeOpacity=0;fillOpacity=0;rounded=1;absoluteArcSize=1;arcSize=9;rotation=-90;fillColor=#ffffff;strokeWidth=0.8;lucidId=iKJYXVIZa1oB;" vertex="1" parent="1">
          <mxGeometry x="77" y="288" width="180" height="45" as="geometry" />
        </mxCell>
        <mxCell id="OgRYj6fnWVbovx88ilHC-95" value="Authentication Controller" style="html=1;overflow=block;blockSpacing=1;whiteSpace=wrap;fontSize=16.7;fontColor=#3a414a;spacing=3.8;strokeColor=#3a414a;strokeOpacity=100;rounded=1;absoluteArcSize=1;arcSize=9;strokeWidth=0.8;lucidId=2zFYu~6vR4Io;" vertex="1" parent="1">
          <mxGeometry x="475" y="288" width="208" height="48" as="geometry" />
        </mxCell>
        <mxCell id="OgRYj6fnWVbovx88ilHC-96" value="Client" style="html=1;overflow=block;blockSpacing=1;whiteSpace=wrap;fontSize=16.7;fontColor=#3a414a;spacing=3.8;strokeColor=#3a414a;strokeOpacity=100;fillOpacity=100;rounded=1;absoluteArcSize=1;arcSize=9;fillColor=#ffffff;strokeWidth=0.8;lucidId=2zFYS80CriyE;" vertex="1" parent="1">
          <mxGeometry x="-30" y="282" width="120" height="60" as="geometry" />
        </mxCell>
        <mxCell id="OgRYj6fnWVbovx88ilHC-97" value="" style="html=1;jettySize=18;whiteSpace=wrap;fontSize=13;strokeColor=#3a414a;strokeOpacity=100;strokeWidth=0.8;rounded=1;arcSize=12;edgeStyle=orthogonalEdgeStyle;startArrow=none;endArrow=block;endFill=1;exitX=1.003;exitY=0.5;exitPerimeter=0;entryX=-0.002;entryY=0.5;entryPerimeter=0;lucidId=2zFYjA5QJSnv;" edge="1" parent="1" source="OgRYj6fnWVbovx88ilHC-96" target="OgRYj6fnWVbovx88ilHC-95">
          <mxGeometry width="100" height="100" relative="1" as="geometry">
            <Array as="points" />
          </mxGeometry>
        </mxCell>
        <mxCell id="OgRYj6fnWVbovx88ilHC-98" value="Sign Up Request" style="html=1;overflow=block;blockSpacing=1;whiteSpace=wrap;fontSize=16.7;fontColor=#3a414a;spacing=3.8;strokeColor=#3a414a;strokeOpacity=100;rounded=1;absoluteArcSize=1;arcSize=9;strokeWidth=0.8;lucidId=2zFYuPj2eo87;" vertex="1" parent="1">
          <mxGeometry x="250" y="387" width="240" height="48" as="geometry" />
        </mxCell>
        <mxCell id="OgRYj6fnWVbovx88ilHC-99" value="" style="html=1;jettySize=18;whiteSpace=wrap;fontSize=13;strokeColor=#3a414a;strokeOpacity=100;dashed=1;fixDash=1;strokeWidth=0.8;rounded=1;arcSize=12;edgeStyle=orthogonalEdgeStyle;startArrow=none;endArrow=block;endFill=1;exitX=0.5;exitY=1.006;exitPerimeter=0;entryX=-0.002;entryY=0.5;entryPerimeter=0;lucidId=2zFYh-ang2oz;" edge="1" parent="1" source="OgRYj6fnWVbovx88ilHC-96" target="OgRYj6fnWVbovx88ilHC-98">
          <mxGeometry width="100" height="100" relative="1" as="geometry">
            <Array as="points" />
          </mxGeometry>
        </mxCell>
        <mxCell id="OgRYj6fnWVbovx88ilHC-100" value="" style="html=1;jettySize=18;whiteSpace=wrap;fontSize=13;strokeColor=#3a414a;strokeOpacity=100;dashed=1;fixDash=1;strokeWidth=0.8;rounded=1;arcSize=12;edgeStyle=orthogonalEdgeStyle;startArrow=none;endArrow=block;endFill=1;exitX=1.002;exitY=0.5;exitPerimeter=0;entryX=0.226;entryY=1.008;entryPerimeter=0;lucidId=2zFYfTfX~uVp;" edge="1" parent="1" source="OgRYj6fnWVbovx88ilHC-98" target="OgRYj6fnWVbovx88ilHC-95">
          <mxGeometry width="100" height="100" relative="1" as="geometry">
            <Array as="points" />
          </mxGeometry>
        </mxCell>
        <mxCell id="OgRYj6fnWVbovx88ilHC-101" value="Authentication Service" style="html=1;overflow=block;blockSpacing=1;whiteSpace=wrap;fontSize=16.7;fontColor=#3a414a;spacing=3.8;strokeColor=#3a414a;strokeOpacity=100;rounded=1;absoluteArcSize=1;arcSize=9;strokeWidth=0.8;lucidId=2zFYuupQO1dz;" vertex="1" parent="1">
          <mxGeometry x="910" y="273" width="120" height="77" as="geometry" />
        </mxCell>
        <mxCell id="OgRYj6fnWVbovx88ilHC-102" value="" style="html=1;jettySize=18;whiteSpace=wrap;fontSize=13;strokeColor=#3a414a;strokeOpacity=100;strokeWidth=0.8;rounded=1;arcSize=12;edgeStyle=orthogonalEdgeStyle;startArrow=none;endArrow=block;endFill=1;exitX=1.002;exitY=0.5;exitPerimeter=0;entryX=-0.003;entryY=0.501;entryPerimeter=0;lucidId=2zFY5B1p9zJb;" edge="1" parent="1" source="OgRYj6fnWVbovx88ilHC-95" target="OgRYj6fnWVbovx88ilHC-101">
          <mxGeometry width="100" height="100" relative="1" as="geometry">
            <Array as="points" />
          </mxGeometry>
        </mxCell>
        <mxCell id="OgRYj6fnWVbovx88ilHC-103" value="User Model Entity" style="html=1;overflow=block;blockSpacing=1;whiteSpace=wrap;fontSize=16.7;fontColor=#3a414a;spacing=3.8;strokeColor=#3a414a;strokeOpacity=100;rounded=1;absoluteArcSize=1;arcSize=9;strokeWidth=0.8;lucidId=2zFYmkBalD0s;" vertex="1" parent="1">
          <mxGeometry x="1181" y="192" width="143" height="45" as="geometry" />
        </mxCell>
        <mxCell id="OgRYj6fnWVbovx88ilHC-104" value="" style="html=1;jettySize=18;whiteSpace=wrap;fontSize=13;strokeColor=#3a414a;strokeOpacity=100;strokeWidth=0.8;rounded=1;arcSize=12;edgeStyle=orthogonalEdgeStyle;startArrow=none;endArrow=block;endFill=1;exitX=0.794;exitY=-0.005;exitPerimeter=0;entryX=0.5;entryY=1.008;entryPerimeter=0;lucidId=2zFYwhEBcv5K;" edge="1" parent="1" source="OgRYj6fnWVbovx88ilHC-101" target="OgRYj6fnWVbovx88ilHC-103">
          <mxGeometry width="100" height="100" relative="1" as="geometry">
            <Array as="points" />
          </mxGeometry>
        </mxCell>
        <mxCell id="OgRYj6fnWVbovx88ilHC-105" value="Sign Up Request" style="html=1;overflow=block;blockSpacing=1;whiteSpace=wrap;fontSize=16.7;fontColor=#3a414a;spacing=3.8;strokeColor=#3a414a;strokeOpacity=100;rounded=1;absoluteArcSize=1;arcSize=9;strokeWidth=0.8;lucidId=2zFY35T8XQso;" vertex="1" parent="1">
          <mxGeometry x="670" y="387" width="240" height="48" as="geometry" />
        </mxCell>
        <mxCell id="OgRYj6fnWVbovx88ilHC-106" value="" style="html=1;jettySize=18;whiteSpace=wrap;fontSize=13;strokeColor=#3a414a;strokeOpacity=100;dashed=1;fixDash=1;strokeWidth=0.8;rounded=1;arcSize=12;edgeStyle=orthogonalEdgeStyle;startArrow=none;endArrow=block;endFill=1;exitX=0.785;exitY=1.008;exitPerimeter=0;entryX=-0.002;entryY=0.5;entryPerimeter=0;lucidId=2zFYU2UNKGSE;" edge="1" parent="1" source="OgRYj6fnWVbovx88ilHC-95" target="OgRYj6fnWVbovx88ilHC-105">
          <mxGeometry width="100" height="100" relative="1" as="geometry">
            <Array as="points" />
          </mxGeometry>
        </mxCell>
        <mxCell id="OgRYj6fnWVbovx88ilHC-107" value="" style="html=1;jettySize=18;whiteSpace=wrap;fontSize=13;strokeColor=#3a414a;strokeOpacity=100;dashed=1;fixDash=1;strokeWidth=0.8;rounded=1;arcSize=12;edgeStyle=orthogonalEdgeStyle;startArrow=none;endArrow=block;endFill=1;exitX=1.002;exitY=0.5;exitPerimeter=0;entryX=0.5;entryY=1.005;entryPerimeter=0;lucidId=2zFYVUvgpoNA;" edge="1" parent="1" source="OgRYj6fnWVbovx88ilHC-105" target="OgRYj6fnWVbovx88ilHC-101">
          <mxGeometry width="100" height="100" relative="1" as="geometry">
            <Array as="points" />
          </mxGeometry>
        </mxCell>
        <mxCell id="OgRYj6fnWVbovx88ilHC-108" value="User Repository" style="html=1;overflow=block;blockSpacing=1;whiteSpace=wrap;fontSize=16.7;fontColor=#3a414a;spacing=3.8;strokeColor=#3a414a;strokeOpacity=100;rounded=1;absoluteArcSize=1;arcSize=9;strokeWidth=0.8;lucidId=fAFYsk1p4nQO;" vertex="1" parent="1">
          <mxGeometry x="1170" y="274" width="165" height="75" as="geometry" />
        </mxCell>
        <mxCell id="OgRYj6fnWVbovx88ilHC-109" value="Sign Up Response" style="html=1;overflow=block;blockSpacing=1;whiteSpace=wrap;fontSize=16.7;fontColor=#3a414a;spacing=3.8;strokeColor=#3a414a;strokeOpacity=100;rounded=1;absoluteArcSize=1;arcSize=9;strokeWidth=0.8;lucidId=MAFYoZEa5P~p;" vertex="1" parent="1">
          <mxGeometry x="670" y="189" width="240" height="48" as="geometry" />
        </mxCell>
        <mxCell id="OgRYj6fnWVbovx88ilHC-110" value="" style="html=1;jettySize=18;whiteSpace=wrap;fontSize=13;strokeColor=#3a414a;strokeOpacity=100;dashed=1;fixDash=1;strokeWidth=0.8;rounded=1;arcSize=12;edgeStyle=orthogonalEdgeStyle;startArrow=none;endArrow=block;endFill=1;exitX=0.5;exitY=-0.005;exitPerimeter=0;entryX=1.002;entryY=0.5;entryPerimeter=0;lucidId=4AFYk~NPB11R;" edge="1" parent="1" source="OgRYj6fnWVbovx88ilHC-101" target="OgRYj6fnWVbovx88ilHC-109">
          <mxGeometry width="100" height="100" relative="1" as="geometry">
            <Array as="points" />
          </mxGeometry>
        </mxCell>
        <mxCell id="OgRYj6fnWVbovx88ilHC-111" value="" style="html=1;jettySize=18;whiteSpace=wrap;fontSize=13;strokeColor=#3a414a;strokeOpacity=100;dashed=1;fixDash=1;strokeWidth=0.8;rounded=1;arcSize=12;edgeStyle=orthogonalEdgeStyle;startArrow=none;endArrow=block;endFill=1;exitX=-0.002;exitY=0.5;exitPerimeter=0;entryX=0.788;entryY=-0.008;entryPerimeter=0;lucidId=hBFYZ2r.XzvJ;" edge="1" parent="1" source="OgRYj6fnWVbovx88ilHC-109" target="OgRYj6fnWVbovx88ilHC-95">
          <mxGeometry width="100" height="100" relative="1" as="geometry">
            <Array as="points" />
          </mxGeometry>
        </mxCell>
        <mxCell id="OgRYj6fnWVbovx88ilHC-112" value="Sign Up Response" style="html=1;overflow=block;blockSpacing=1;whiteSpace=wrap;fontSize=16.7;fontColor=#3a414a;spacing=3.8;strokeColor=#3a414a;strokeOpacity=100;rounded=1;absoluteArcSize=1;arcSize=9;strokeWidth=0.8;lucidId=kBFYXRJNL8_Y;" vertex="1" parent="1">
          <mxGeometry x="245" y="189" width="240" height="48" as="geometry" />
        </mxCell>
        <mxCell id="OgRYj6fnWVbovx88ilHC-113" value="" style="html=1;jettySize=18;whiteSpace=wrap;fontSize=13;strokeColor=#3a414a;strokeOpacity=100;dashed=1;fixDash=1;strokeWidth=0.8;rounded=1;arcSize=12;edgeStyle=orthogonalEdgeStyle;startArrow=none;endArrow=block;endFill=1;exitX=0.214;exitY=-0.008;exitPerimeter=0;entryX=1.002;entryY=0.5;entryPerimeter=0;lucidId=zBFY5hNd.Mw_;" edge="1" parent="1" source="OgRYj6fnWVbovx88ilHC-95" target="OgRYj6fnWVbovx88ilHC-112">
          <mxGeometry width="100" height="100" relative="1" as="geometry">
            <Array as="points" />
          </mxGeometry>
        </mxCell>
        <mxCell id="OgRYj6fnWVbovx88ilHC-114" value="" style="html=1;jettySize=18;whiteSpace=wrap;fontSize=13;strokeColor=#3a414a;strokeOpacity=100;dashed=1;fixDash=1;strokeWidth=0.8;rounded=1;arcSize=12;edgeStyle=orthogonalEdgeStyle;startArrow=none;endArrow=block;endFill=1;exitX=-0.002;exitY=0.5;exitPerimeter=0;entryX=0.5;entryY=-0.006;entryPerimeter=0;lucidId=CBFYUsvmMAET;" edge="1" parent="1" source="OgRYj6fnWVbovx88ilHC-112" target="OgRYj6fnWVbovx88ilHC-96">
          <mxGeometry width="100" height="100" relative="1" as="geometry">
            <Array as="points" />
          </mxGeometry>
        </mxCell>
        <mxCell id="OgRYj6fnWVbovx88ilHC-115" value="" style="html=1;jettySize=18;whiteSpace=wrap;fontSize=13;strokeColor=#3a414a;strokeOpacity=100;strokeWidth=0.8;rounded=1;arcSize=12;edgeStyle=orthogonalEdgeStyle;startArrow=none;endArrow=block;endFill=1;exitX=1.003;exitY=0.5;exitPerimeter=0;entryX=-0.002;entryY=0.5;entryPerimeter=0;lucidId=nCFYD-VR2bTi;" edge="1" parent="1" source="OgRYj6fnWVbovx88ilHC-101" target="OgRYj6fnWVbovx88ilHC-108">
          <mxGeometry width="100" height="100" relative="1" as="geometry">
            <Array as="points" />
          </mxGeometry>
        </mxCell>
        <mxCell id="OgRYj6fnWVbovx88ilHC-116" value="" style="html=1;overflow=block;blockSpacing=1;whiteSpace=wrap;shape=cylinder3;direction=south;size=10;anchorPointDirection=0;boundedLbl=1;fontSize=13;spacing=3.8;strokeColor=#3a414a;strokeOpacity=100;rounded=1;absoluteArcSize=1;arcSize=9;rotation=-90;strokeWidth=0.8;lucidId=6CFYuHata7f0;" vertex="1" parent="1">
          <mxGeometry x="1410" y="267" width="120" height="90" as="geometry" />
        </mxCell>
        <mxCell id="OgRYj6fnWVbovx88ilHC-117" value="Database" style="html=1;overflow=block;blockSpacing=1;whiteSpace=wrap;fontSize=16.7;fontColor=#3a414a;spacing=3.8;strokeOpacity=0;fillOpacity=0;rounded=1;absoluteArcSize=1;arcSize=9;fillColor=#ffffff;strokeWidth=0.8;lucidId=ADFYUWlyWlCn;" vertex="1" parent="1">
          <mxGeometry x="1425" y="295" width="90" height="33" as="geometry" />
        </mxCell>
        <mxCell id="OgRYj6fnWVbovx88ilHC-118" value="" style="html=1;jettySize=18;whiteSpace=wrap;fontSize=13;strokeColor=#3a414a;strokeOpacity=100;strokeWidth=0.8;rounded=1;arcSize=12;edgeStyle=orthogonalEdgeStyle;startArrow=none;endArrow=block;endFill=1;exitX=1.002;exitY=0.5;exitPerimeter=0;entryX=0.5;entryY=-0.004;entryPerimeter=0;lucidId=TDFYDqDGcc03;" edge="1" parent="1" source="OgRYj6fnWVbovx88ilHC-108" target="OgRYj6fnWVbovx88ilHC-116">
          <mxGeometry width="100" height="100" relative="1" as="geometry">
            <Array as="points" />
          </mxGeometry>
        </mxCell>
        <mxCell id="OgRYj6fnWVbovx88ilHC-119" value="Sign Up Process" style="html=1;overflow=block;blockSpacing=1;whiteSpace=wrap;fontSize=26.7;fontColor=#3a414a;fontStyle=5;spacing=3.8;strokeOpacity=0;fillOpacity=0;rounded=1;absoluteArcSize=1;arcSize=9;fillColor=#ffffff;strokeWidth=0.8;lucidId=~DFYZkBlnF4q;" vertex="1" parent="1">
          <mxGeometry x="160" y="-30" width="1310" height="45" as="geometry" />
        </mxCell>
        <mxCell id="OgRYj6fnWVbovx88ilHC-120" value="&lt;div style=&quot;display: flex; justify-content: center; text-align: center; align-items: baseline; font-size: 0; line-height: 1.25;margin-top: -2px;&quot;&gt;&lt;span&gt;&lt;span style=&quot;font-size:16.7px;color:#3a414a;font-weight: bold;&quot;&gt;Step 1&#xa;&lt;/span&gt;&lt;span style=&quot;font-size:11.7px;color:#3a414a;font-weight: bold;&quot;&gt;&quot;&lt;/span&gt;&lt;span style=&quot;font-size:11.7px;color:#3a414a;&quot;&gt;/api/vi/auth/signup&lt;/span&gt;&lt;span style=&quot;font-size:11.7px;color:#3a414a;font-weight: bold;&quot;&gt;&quot;&lt;/span&gt;&lt;/span&gt;&lt;/div&gt;" style="html=1;overflow=block;blockSpacing=1;whiteSpace=wrap;fontSize=13;spacing=3.8;strokeOpacity=0;fillOpacity=0;rounded=1;absoluteArcSize=1;arcSize=9;fillColor=#ffffff;strokeWidth=0.8;lucidId=KFFYn5MueqUD;" vertex="1" parent="1">
          <mxGeometry x="301" y="255" width="139" height="47" as="geometry" />
        </mxCell>
        <mxCell id="OgRYj6fnWVbovx88ilHC-121" value="Step 1" style="html=1;overflow=block;blockSpacing=1;whiteSpace=wrap;fontSize=16.7;fontColor=#3a414a;fontStyle=1;spacing=3.8;strokeOpacity=0;fillOpacity=0;rounded=1;absoluteArcSize=1;arcSize=9;fillColor=#ffffff;strokeWidth=0.8;lucidId=7FFYPt37ztXa;" vertex="1" parent="1">
          <mxGeometry x="306" y="350" width="118" height="26" as="geometry" />
        </mxCell>
        <mxCell id="OgRYj6fnWVbovx88ilHC-122" value="Step 2" style="html=1;overflow=block;blockSpacing=1;whiteSpace=wrap;fontSize=16.7;fontColor=#3a414a;fontStyle=1;spacing=3.8;strokeOpacity=0;fillOpacity=0;rounded=1;absoluteArcSize=1;arcSize=9;fillColor=#ffffff;strokeWidth=0.8;lucidId=hGFYZjv~YuN5;" vertex="1" parent="1">
          <mxGeometry x="731" y="276" width="118" height="26" as="geometry" />
        </mxCell>
        <mxCell id="OgRYj6fnWVbovx88ilHC-123" value="Step 2" style="html=1;overflow=block;blockSpacing=1;whiteSpace=wrap;fontSize=16.7;fontColor=#3a414a;fontStyle=1;spacing=3.8;strokeOpacity=0;fillOpacity=0;rounded=1;absoluteArcSize=1;arcSize=9;fillColor=#ffffff;strokeWidth=0.8;lucidId=zGFY5BSuIJj7;" vertex="1" parent="1">
          <mxGeometry x="731" y="351" width="118" height="26" as="geometry" />
        </mxCell>
        <mxCell id="OgRYj6fnWVbovx88ilHC-124" value="Step 3" style="html=1;overflow=block;blockSpacing=1;whiteSpace=wrap;fontSize=16.7;fontColor=#3a414a;fontStyle=1;spacing=3.8;strokeOpacity=0;fillOpacity=0;rounded=1;absoluteArcSize=1;arcSize=9;fillColor=#ffffff;strokeWidth=0.8;lucidId=7GFY8KIpnJoN;" vertex="1" parent="1">
          <mxGeometry x="1050" y="217" width="118" height="26" as="geometry" />
        </mxCell>
        <mxCell id="OgRYj6fnWVbovx88ilHC-125" value="Step 4" style="html=1;overflow=block;blockSpacing=1;whiteSpace=wrap;fontSize=16.7;fontColor=#3a414a;fontStyle=1;spacing=3.8;strokeOpacity=0;fillOpacity=0;rounded=1;absoluteArcSize=1;arcSize=9;fillColor=#ffffff;strokeWidth=0.8;lucidId=eHFYQ9thBJcC;" vertex="1" parent="1">
          <mxGeometry x="1050" y="276" width="118" height="26" as="geometry" />
        </mxCell>
        <mxCell id="OgRYj6fnWVbovx88ilHC-126" value="Step 5" style="html=1;overflow=block;blockSpacing=1;whiteSpace=wrap;fontSize=16.7;fontColor=#3a414a;fontStyle=1;spacing=3.8;strokeOpacity=0;fillOpacity=0;rounded=1;absoluteArcSize=1;arcSize=9;fillColor=#ffffff;strokeWidth=0.8;lucidId=.HFY~2yxw~1o;" vertex="1" parent="1">
          <mxGeometry x="731" y="150" width="118" height="26" as="geometry" />
        </mxCell>
        <mxCell id="OgRYj6fnWVbovx88ilHC-127" value="Step 6" style="html=1;overflow=block;blockSpacing=1;whiteSpace=wrap;fontSize=16.7;fontColor=#3a414a;fontStyle=1;spacing=3.8;strokeOpacity=0;fillOpacity=0;rounded=1;absoluteArcSize=1;arcSize=9;fillColor=#ffffff;strokeWidth=0.8;lucidId=UJFYarfEnzPf;" vertex="1" parent="1">
          <mxGeometry x="306" y="150" width="118" height="26" as="geometry" />
        </mxCell>
        <mxCell id="OgRYj6fnWVbovx88ilHC-128" value="&lt;div style=&quot;display: flex; justify-content: flex-start; text-align: left; align-items: baseline; font-size: 0; line-height: 1.25;margin-top: -2px;&quot;&gt;&lt;span&gt;&lt;span style=&quot;font-size:12px;color:#3a414a;font-weight: bold;&quot;&gt;{&#xa;&lt;/span&gt;&lt;/span&gt;&lt;/div&gt;&lt;div style=&quot;display: flex; justify-content: flex-start; text-align: left; align-items: baseline; font-size: 0; line-height: 1.25;margin-top: -2px;&quot;&gt;&lt;span&gt;&lt;span style=&quot;font-size:12px;color:#3a414a;font-weight: bold;&quot;&gt;    &quot;firstName&quot;: &quot;user&quot;,&#xa;&lt;/span&gt;&lt;/span&gt;&lt;/div&gt;&lt;div style=&quot;display: flex; justify-content: flex-start; text-align: left; align-items: baseline; font-size: 0; line-height: 1.25;margin-top: -2px;&quot;&gt;&lt;span&gt;&lt;span style=&quot;font-size:12px;color:#3a414a;font-weight: bold;&quot;&gt;    &quot;lastName&quot;: &quot;user&quot;,&#xa;&lt;/span&gt;&lt;/span&gt;&lt;/div&gt;&lt;div style=&quot;display: flex; justify-content: flex-start; text-align: left; align-items: baseline; font-size: 0; line-height: 1.25;margin-top: -2px;&quot;&gt;&lt;span&gt;&lt;span style=&quot;font-size:12px;color:#3a414a;font-weight: bold;&quot;&gt;    &quot;email&quot;: &quot;somemail@mail.com&quot;,&#xa;&lt;/span&gt;&lt;/span&gt;&lt;/div&gt;&lt;div style=&quot;display: flex; justify-content: flex-start; text-align: left; align-items: baseline; font-size: 0; line-height: 1.25;margin-top: -2px;&quot;&gt;&lt;span&gt;&lt;span style=&quot;font-size:12px;color:#3a414a;font-weight: bold;&quot;&gt;    &quot;password&quot;: &quot;1234&quot;&#xa;&lt;/span&gt;&lt;/span&gt;&lt;/div&gt;&lt;div style=&quot;display: flex; justify-content: flex-start; text-align: left; align-items: baseline; font-size: 0; line-height: 1.25;margin-top: -2px;&quot;&gt;&lt;span&gt;&lt;span style=&quot;font-size:12px;color:#3a414a;font-weight: bold;&quot;&gt;}&lt;/span&gt;&lt;/span&gt;&lt;/div&gt;" style="html=1;overflow=block;blockSpacing=1;whiteSpace=wrap;fontSize=13;spacing=3.8;verticalAlign=middle;strokeOpacity=0;fillOpacity=0;rounded=1;absoluteArcSize=1;arcSize=9;fillColor=#ffffff;strokeWidth=0.8;lucidId=HLFYOpWRRfpn;" vertex="1" parent="1">
          <mxGeometry x="265" y="445" width="210" height="120" as="geometry" />
        </mxCell>
        <mxCell id="OgRYj6fnWVbovx88ilHC-129" value="&lt;div style=&quot;display: flex; justify-content: flex-start; text-align: left; align-items: baseline; font-size: 0; line-height: 1.25;margin-top: -2px;&quot;&gt;&lt;span&gt;&lt;span style=&quot;font-size:12px;color:#3a414a;font-weight: bold;&quot;&gt;{&#xa;&lt;/span&gt;&lt;/span&gt;&lt;/div&gt;&lt;div style=&quot;display: flex; justify-content: flex-start; text-align: left; align-items: baseline; font-size: 0; line-height: 1.25;margin-top: -2px;&quot;&gt;&lt;span&gt;&lt;span style=&quot;font-size:12px;color:#3a414a;font-weight: bold;&quot;&gt;    &quot;firstName&quot;: &quot;user&quot;,&#xa;&lt;/span&gt;&lt;/span&gt;&lt;/div&gt;&lt;div style=&quot;display: flex; justify-content: flex-start; text-align: left; align-items: baseline; font-size: 0; line-height: 1.25;margin-top: -2px;&quot;&gt;&lt;span&gt;&lt;span style=&quot;font-size:12px;color:#3a414a;font-weight: bold;&quot;&gt;    &quot;lastName&quot;: &quot;user&quot;,&#xa;&lt;/span&gt;&lt;/span&gt;&lt;/div&gt;&lt;div style=&quot;display: flex; justify-content: flex-start; text-align: left; align-items: baseline; font-size: 0; line-height: 1.25;margin-top: -2px;&quot;&gt;&lt;span&gt;&lt;span style=&quot;font-size:12px;color:#3a414a;font-weight: bold;&quot;&gt;    &quot;email&quot;: &quot;somemail@mail.com&quot;,&#xa;&lt;/span&gt;&lt;/span&gt;&lt;/div&gt;&lt;div style=&quot;display: flex; justify-content: flex-start; text-align: left; align-items: baseline; font-size: 0; line-height: 1.25;margin-top: -2px;&quot;&gt;&lt;span&gt;&lt;span style=&quot;font-size:12px;color:#3a414a;font-weight: bold;&quot;&gt;    &quot;password&quot;: &quot;1234&quot;&#xa;&lt;/span&gt;&lt;/span&gt;&lt;/div&gt;&lt;div style=&quot;display: flex; justify-content: flex-start; text-align: left; align-items: baseline; font-size: 0; line-height: 1.25;margin-top: -2px;&quot;&gt;&lt;span&gt;&lt;span style=&quot;font-size:12px;color:#3a414a;font-weight: bold;&quot;&gt;}&lt;/span&gt;&lt;/span&gt;&lt;/div&gt;" style="html=1;overflow=block;blockSpacing=1;whiteSpace=wrap;fontSize=13;spacing=3.8;verticalAlign=middle;strokeOpacity=0;fillOpacity=0;rounded=1;absoluteArcSize=1;arcSize=9;fillColor=#ffffff;strokeWidth=0.8;lucidId=RMFYB1ZDhTf1;" vertex="1" parent="1">
          <mxGeometry x="685" y="445" width="210" height="120" as="geometry" />
        </mxCell>
        <mxCell id="OgRYj6fnWVbovx88ilHC-130" value="&lt;div style=&quot;display: flex; justify-content: flex-start; text-align: left; align-items: baseline; font-size: 0; line-height: 1.25;margin-top: -2px;&quot;&gt;&lt;span&gt;&lt;span style=&quot;font-size:12px;color:#3a414a;font-weight: bold;&quot;&gt;{&#xa;&lt;/span&gt;&lt;/span&gt;&lt;/div&gt;&lt;div style=&quot;display: flex; justify-content: flex-start; text-align: left; align-items: baseline; font-size: 0; line-height: 1.25;margin-top: -2px;&quot;&gt;&lt;span&gt;&lt;span style=&quot;font-size:12px;color:#3a414a;font-weight: bold;&quot;&gt;    &quot;firstName&quot;: &quot;user&quot;,&#xa;&lt;/span&gt;&lt;/span&gt;&lt;/div&gt;&lt;div style=&quot;display: flex; justify-content: flex-start; text-align: left; align-items: baseline; font-size: 0; line-height: 1.25;margin-top: -2px;&quot;&gt;&lt;span&gt;&lt;span style=&quot;font-size:12px;color:#3a414a;font-weight: bold;&quot;&gt;    &quot;lastName&quot;: &quot;user&quot;,&#xa;&lt;/span&gt;&lt;/span&gt;&lt;/div&gt;&lt;div style=&quot;display: flex; justify-content: flex-start; text-align: left; align-items: baseline; font-size: 0; line-height: 1.25;margin-top: -2px;&quot;&gt;&lt;span&gt;&lt;span style=&quot;font-size:12px;color:#3a414a;font-weight: bold;&quot;&gt;    &quot;email&quot;: &quot;somemail@mail.com&quot;,&#xa;&lt;/span&gt;&lt;/span&gt;&lt;/div&gt;&lt;div style=&quot;display: flex; justify-content: flex-start; text-align: left; align-items: baseline; font-size: 0; line-height: 1.25;margin-top: -2px;&quot;&gt;&lt;span&gt;&lt;span style=&quot;font-size:12px;color:#3a414a;font-weight: bold;&quot;&gt;    &quot;password&quot;: &quot;1234&quot;&#xa;&lt;/span&gt;&lt;/span&gt;&lt;/div&gt;&lt;div style=&quot;display: flex; justify-content: flex-start; text-align: left; align-items: baseline; font-size: 0; line-height: 1.25;margin-top: -2px;&quot;&gt;&lt;span&gt;&lt;span style=&quot;font-size:12px;color:#3a414a;font-weight: bold;&quot;&gt;}&lt;/span&gt;&lt;/span&gt;&lt;/div&gt;" style="html=1;overflow=block;blockSpacing=1;whiteSpace=wrap;fontSize=13;spacing=3.8;verticalAlign=middle;strokeOpacity=0;fillOpacity=0;rounded=1;absoluteArcSize=1;arcSize=9;fillColor=#ffffff;strokeWidth=0.8;lucidId=YNFY7pJtkz4H;" vertex="1" parent="1">
          <mxGeometry x="685" y="30" width="210" height="120" as="geometry" />
        </mxCell>
        <mxCell id="OgRYj6fnWVbovx88ilHC-131" value="&lt;div style=&quot;display: flex; justify-content: flex-start; text-align: left; align-items: baseline; font-size: 0; line-height: 1.25;margin-top: -2px;&quot;&gt;&lt;span&gt;&lt;span style=&quot;font-size:12px;color:#3a414a;font-weight: bold;&quot;&gt;{&#xa;&lt;/span&gt;&lt;/span&gt;&lt;/div&gt;&lt;div style=&quot;display: flex; justify-content: flex-start; text-align: left; align-items: baseline; font-size: 0; line-height: 1.25;margin-top: -2px;&quot;&gt;&lt;span&gt;&lt;span style=&quot;font-size:12px;color:#3a414a;font-weight: bold;&quot;&gt;    &quot;firstName&quot;: &quot;user&quot;,&#xa;&lt;/span&gt;&lt;/span&gt;&lt;/div&gt;&lt;div style=&quot;display: flex; justify-content: flex-start; text-align: left; align-items: baseline; font-size: 0; line-height: 1.25;margin-top: -2px;&quot;&gt;&lt;span&gt;&lt;span style=&quot;font-size:12px;color:#3a414a;font-weight: bold;&quot;&gt;    &quot;lastName&quot;: &quot;user&quot;,&#xa;&lt;/span&gt;&lt;/span&gt;&lt;/div&gt;&lt;div style=&quot;display: flex; justify-content: flex-start; text-align: left; align-items: baseline; font-size: 0; line-height: 1.25;margin-top: -2px;&quot;&gt;&lt;span&gt;&lt;span style=&quot;font-size:12px;color:#3a414a;font-weight: bold;&quot;&gt;    &quot;email&quot;: &quot;somemail@mail.com&quot;,&#xa;&lt;/span&gt;&lt;/span&gt;&lt;/div&gt;&lt;div style=&quot;display: flex; justify-content: flex-start; text-align: left; align-items: baseline; font-size: 0; line-height: 1.25;margin-top: -2px;&quot;&gt;&lt;span&gt;&lt;span style=&quot;font-size:12px;color:#3a414a;font-weight: bold;&quot;&gt;    &quot;password&quot;: &quot;1234&quot;&#xa;&lt;/span&gt;&lt;/span&gt;&lt;/div&gt;&lt;div style=&quot;display: flex; justify-content: flex-start; text-align: left; align-items: baseline; font-size: 0; line-height: 1.25;margin-top: -2px;&quot;&gt;&lt;span&gt;&lt;span style=&quot;font-size:12px;color:#3a414a;font-weight: bold;&quot;&gt;}&lt;/span&gt;&lt;/span&gt;&lt;/div&gt;" style="html=1;overflow=block;blockSpacing=1;whiteSpace=wrap;fontSize=13;spacing=3.8;verticalAlign=middle;strokeOpacity=0;fillOpacity=0;rounded=1;absoluteArcSize=1;arcSize=9;fillColor=#ffffff;strokeWidth=0.8;lucidId=kOFYxa5o5vlA;" vertex="1" parent="1">
          <mxGeometry x="255" y="30" width="210" height="120" as="geometry" />
        </mxCell>
      </root>
    </mxGraphModel>
  </diagram>
</mxfile>
